<?xml version="1.0" encoding="UTF-8"?>
<svg version="1.1" xmlns="http://www.w3.org/2000/svg" width="180" height="180">
<path d="M0 0 C0.66 0 1.32 0 2 0 C7.28 10.56 12.56 21.12 18 32 C19.77684752 27.26173994 21.43637236 22.7869337 22.82421875 17.96875 C23.13037109 16.91171875 23.43652344 15.8546875 23.75195312 14.765625 C24.06068359 13.68796875 24.36941406 12.6103125 24.6875 11.5 C25.00783203 10.39140625 25.32816406 9.2828125 25.65820312 8.140625 C26.44162063 5.42789572 27.22120163 2.71405899 28 0 C33.28 0 38.56 0 44 0 C42.71640021 7.38462819 41.20416425 14.64495752 39.3984375 21.91796875 C39.0364476 23.39285515 39.0364476 23.39285515 38.66714478 24.89753723 C37.90618364 27.9949608 37.14067703 31.09123921 36.375 34.1875 C35.85386379 36.30526403 35.33302776 38.42310196 34.8125 40.54101562 C33.54513049 45.69486997 32.27368713 50.84770348 31 56 C24.73 56 18.46 56 12 56 C11.15695313 54.44667969 10.31390625 52.89335938 9.4453125 51.29296875 C8.33861576 49.25777221 7.23184087 47.22261816 6.125 45.1875 C5.56941406 44.16333984 5.01382813 43.13917969 4.44140625 42.08398438 C3.90644531 41.10107422 3.37148437 40.11816406 2.8203125 39.10546875 C2.32805176 38.19949951 1.83579102 37.29353027 1.32861328 36.36010742 C0.29688304 34.52737382 -0.83336384 32.74995424 -2 31 C-3.0331497 32.33727102 -4.06566727 33.67503396 -5.09545898 35.01489258 C-6.00021724 36.18464279 -6.91269158 37.34846025 -7.83227539 38.5065918 C-10.1262024 41.42229272 -12.22270665 44.27404237 -14 47.53515625 C-16.10674942 51.09879086 -17.69164816 53.48547521 -21 56 C-27.24783738 57.4214441 -33.69500243 56.69271591 -40 56 C-38.36007035 50.72279049 -35.03306173 46.72492376 -31.75 42.375 C-30.47896543 40.67202518 -29.20813803 38.96889571 -27.9375 37.265625 C-27.28523438 36.39486328 -26.63296875 35.52410156 -25.9609375 34.62695312 C-23.46036698 31.27708524 -20.9883992 27.90674941 -18.51757812 24.53491211 C-15.6907238 20.68078517 -12.84804673 16.83848428 -10 13 C-9.23236328 11.96431885 -9.23236328 11.96431885 -8.44921875 10.90771484 C-7.05712289 9.03674168 -5.65580453 7.17318494 -4.25 5.3125 C-3.47140625 4.27738281 -2.6928125 3.24226563 -1.890625 2.17578125 C-1.26671875 1.45777344 -0.6428125 0.73976562 0 0 Z " fill="#FFFFFF" transform="translate(75,62)"/>
<path d="M0 0 C19.8 0 39.6 0 60 0 C57.55880817 6.10297957 55.30286254 10.94081162 50 15 C44.30778191 16.36666654 38.82212418 16.26854228 33 16.125 C31.44661362 16.12305543 29.8932147 16.12561945 28.33984375 16.1328125 C24.5577508 16.14059225 20.78104818 16.08714731 17 16 C16.67 17.32 16.34 18.64 16 20 C29.86 20.495 29.86 20.495 44 21 C42.56654514 26.73381942 40.35421772 31.83633896 35.95654297 35.88671875 C29.08150408 39.79864505 18.56784113 37.73209923 11 37 C10.87882812 37.70125 10.75765625 38.4025 10.6328125 39.125 C10.46523438 40.07375 10.29765625 41.0225 10.125 42 C9.96257813 42.928125 9.80015625 43.85625 9.6328125 44.8125 C8.88679784 48.57020345 7.92916386 52.28334456 7 56 C0.73 56 -5.54 56 -12 56 C-11.42388925 48.77138657 -10.23123957 41.99475966 -8.49609375 34.9609375 C-8.2808606 34.06673096 -8.06562744 33.17252441 -7.84387207 32.2512207 C-7.04901563 28.95738486 -6.24260466 25.6663459 -5.4375 22.375 C-3.643125 14.99125 -1.84875 7.6075 0 0 Z " fill="#FFFFFF" transform="translate(12,62)"/>
<path d="M0 0 C19.47 0 38.94 0 59 0 C57.44800137 6.20799453 54.97843854 10.87381133 50 15 C44.10774178 16.36752487 38.50040991 16.047846 32.5 15.6875 C30.89860589 15.63225158 29.29702835 15.58207384 27.6953125 15.53710938 C23.79230595 15.41656504 19.8981888 15.2272672 16 15 C15.87447754 15.78793945 15.74895508 16.57587891 15.61962891 17.38769531 C14.42898271 24.72010085 12.88240512 31.81263498 11 39 C17.93 39.66 24.86 40.32 32 41 C29.44019933 47.39950168 26.74906146 52.03289791 21 56 C15.31574259 57.58466172 9.25937623 56.94458513 3.4375 56.625 C1.84063484 56.57475863 0.24361701 56.52914535 -1.35351562 56.48828125 C-5.23949199 56.37886644 -9.11804023 56.20684268 -13 56 C-12.33871007 49.39395341 -10.91716967 43.1459313 -9.27734375 36.71875 C-8.92500671 35.31544434 -8.92500671 35.31544434 -8.56555176 33.88378906 C-7.69471484 30.42121906 -6.81563092 26.96072738 -5.9375 23.5 C-3.978125 15.745 -2.01875 7.99 0 0 Z " fill="#FFFFFF" transform="translate(121,62)"/>
</svg>
