<?xml version="1.0" standalone="no"?>
<!DOCTYPE svg PUBLIC "-//W3C//DTD SVG 20010904//EN"
 "http://www.w3.org/TR/2001/REC-SVG-20010904/DTD/svg10.dtd">
<svg version="1.0" xmlns="http://www.w3.org/2000/svg"
 width="1681.000000pt" height="689.000000pt" viewBox="0 0 1681.000000 689.000000"
 preserveAspectRatio="xMidYMid meet">

<g transform="translate(0.000000,689.000000) scale(0.100000,-0.100000)"
fill="#000000" stroke="none">
<path d="M7470 6713 c0 -8 -1400 -4637 -1409 -4658 -5 -11 -6 73 -3 190 46
2040 77 3662 69 3673 -5 6 -19 12 -31 12 -19 0 -1900 -365 -1938 -376 -20 -6
-23 -35 -8 -65 23 -43 64 -52 280 -60 185 -7 214 -10 288 -35 110 -36 162 -77
201 -156 57 -116 57 -78 22 -1748 -35 -1740 -38 -1819 -71 -1905 -28 -72 -128
-178 -201 -213 -27 -13 -108 -33 -193 -47 -156 -26 -227 -50 -245 -83 -6 -12
-11 -40 -11 -65 l0 -44 533 -6 c292 -4 644 -7 781 -7 221 0 247 -2 242 -16
-12 -31 -256 -843 -256 -852 0 -8 195 -72 222 -72 10 0 299 943 991 3231 538
1778 976 3233 975 3234 -7 6 -238 73 -238 68z"/>
<path d="M1630 5934 c-229 -20 -360 -45 -526 -98 -217 -70 -400 -183 -549
-337 -309 -321 -361 -700 -125 -913 164 -148 456 -135 615 28 215 220 184 637
-66 887 l-76 76 41 25 c199 124 477 178 687 134 343 -73 588 -345 687 -761 25
-103 27 -125 26 -350 0 -263 -10 -347 -65 -554 -58 -218 -162 -444 -303 -654
-168 -252 -287 -386 -801 -908 -554 -560 -765 -793 -1001 -1099 -155 -203
-175 -235 -164 -264 l10 -26 1672 0 1673 0 209 731 c114 401 210 739 213 749
5 18 0 20 -44 20 -61 0 -69 -8 -153 -155 -112 -193 -172 -278 -259 -365 -133
-133 -266 -190 -525 -228 -108 -15 -223 -17 -1100 -17 -679 0 -980 3 -983 11
-5 14 145 177 259 281 196 179 398 335 903 698 657 472 940 708 1173 980 324
378 448 758 368 1130 -115 532 -555 868 -1259 960 -116 15 -449 27 -537 19z"/>
<path d="M7954 5927 c-3 -8 -171 -609 -373 -1338 l-368 -1324 415 -3 c228 -1
417 -1 419 1 2 3 81 283 176 623 l172 619 6 -90 c3 -50 16 -117 27 -150 12
-33 129 -271 260 -530 l240 -470 506 -3 c278 -1 506 1 506 5 0 5 -127 278
-282 608 -273 578 -283 602 -283 660 0 37 7 75 19 100 12 28 214 235 647 666
346 345 629 630 629 633 0 3 -224 6 -497 6 l-498 0 -495 -454 c-272 -250 -526
-490 -564 -533 -37 -43 -88 -112 -112 -153 -24 -41 -44 -72 -44 -68 0 4 72
264 159 580 88 315 163 585 166 601 l7 27 -416 0 c-337 0 -418 -3 -422 -13z"/>
<path d="M11620 5929 c-500 -43 -789 -218 -980 -594 -125 -246 -170 -505 -120
-700 50 -197 174 -306 410 -361 65 -15 152 -18 633 -23 l559 -6 24 -28 c39
-45 29 -114 -24 -170 -62 -66 1 -62 -959 -65 l-872 -3 -15 -52 c-15 -52 -155
-559 -174 -630 l-11 -38 907 4 c783 4 920 6 1001 21 148 25 238 53 349 108
175 86 324 243 426 453 123 249 172 516 131 710 -32 150 -112 260 -241 327
-137 72 -126 71 -754 77 -615 7 -610 6 -638 63 -22 47 23 128 93 166 27 15
111 17 877 20 l847 3 15 52 c8 29 51 185 96 347 45 162 83 303 86 313 5 16
-37 17 -783 16 -433 -1 -831 -5 -883 -10z"/>
<path d="M13945 5932 l-390 -3 -260 -931 c-143 -513 -268 -971 -277 -1018 -22
-106 -23 -275 -3 -353 35 -136 114 -232 238 -291 149 -72 61 -68 1501 -78 715
-5 1302 -5 1306 -1 4 4 173 604 375 1333 203 729 370 1331 373 1338 3 9 -83
12 -411 12 -387 0 -416 -1 -421 -17 -3 -10 -123 -441 -266 -958 -144 -517
-263 -941 -264 -943 -2 -1 -86 -1 -188 0 l-185 3 263 945 c145 520 263 948
264 953 0 4 -186 7 -412 7 l-413 0 -249 -893 c-138 -490 -258 -920 -268 -954
l-19 -63 -102 1 c-117 0 -162 12 -191 52 -45 61 -39 90 214 997 128 459 235
843 238 853 3 14 -2 17 -29 15 -19 -2 -209 -4 -424 -6z"/>
<path d="M10866 1651 c-190 -275 -346 -502 -346 -505 0 -3 52 -6 115 -6 l115
0 72 110 73 110 215 -3 215 -2 14 -107 14 -108 115 0 114 0 -6 33 c-3 17 -37
235 -76 482 -39 248 -73 460 -75 473 -5 21 -10 22 -109 22 l-104 0 -346 -499z
m410 66 c12 -84 19 -155 17 -159 -2 -5 -60 -8 -129 -8 -101 0 -125 3 -122 14
5 21 202 315 208 309 3 -2 14 -73 26 -156z"/>
<path d="M15296 2139 c-63 -15 -155 -69 -196 -117 -47 -53 -72 -122 -71 -201
0 -118 60 -183 246 -271 136 -64 165 -87 165 -128 0 -129 -245 -143 -383 -22
-25 22 -48 40 -52 40 -3 0 -42 -30 -86 -67 l-79 -68 42 -42 c90 -92 219 -137
388 -137 129 0 189 17 277 78 93 63 147 197 124 302 -24 104 -74 148 -274 238
-110 50 -137 72 -137 114 0 76 117 123 230 92 30 -8 94 -45 147 -85 9 -7 32
10 88 65 l76 75 -38 33 c-49 43 -117 78 -190 97 -63 16 -215 18 -277 4z"/>
<path d="M6825 1835 l104 -304 -53 -196 -53 -195 111 0 111 0 49 184 49 185
234 268 c129 147 253 289 275 316 l40 47 -134 0 -133 -1 -169 -205 c-113 -138
-171 -201 -176 -192 -4 7 -31 100 -61 205 l-54 193 -122 0 -123 0 105 -305z"/>
<path d="M8854 2113 c-4 -16 -64 -239 -134 -498 l-126 -470 375 -3 c206 -1
376 0 378 2 4 3 53 175 53 183 0 2 -121 3 -269 3 l-269 0 27 103 28 102 234 5
234 5 27 95 c15 52 28 96 28 98 0 1 -105 2 -233 2 l-233 0 25 100 26 100 266
0 266 0 22 83 c12 45 24 90 27 100 5 16 -17 17 -370 17 l-376 0 -6 -27z"/>
<path d="M13035 2128 c-5 -13 -265 -981 -265 -985 0 -2 49 -3 110 -3 l109 0
12 43 c50 190 71 263 78 270 4 4 42 7 84 5 l76 -3 76 -155 76 -155 124 -3 c69
-1 125 0 125 3 0 3 -36 77 -80 165 -44 88 -80 162 -80 164 0 2 17 10 38 17
104 33 194 99 237 173 13 23 30 73 36 111 28 165 -48 291 -205 342 -70 22
-543 32 -551 11z m462 -208 c109 -49 88 -187 -37 -244 -37 -16 -71 -21 -187
-24 -79 -2 -143 -1 -143 3 0 4 16 69 37 146 l36 139 126 0 c103 0 134 -4 168
-20z"/>
</g>
</svg>
